<mxfile host="app.diagrams.net" agent="Mozilla/5.0 (Windows NT 10.0; Win64; x64) AppleWebKit/537.36 (KHTML, like Gecko) Chrome/140.0.0.0 Safari/537.36" version="28.2.5">
  <diagram name="Página-1" id="eWD0TnMuZRgTBADbDwU2">
    <mxGraphModel dx="131" dy="70" grid="1" gridSize="10" guides="1" tooltips="1" connect="1" arrows="1" fold="1" page="1" pageScale="1" pageWidth="827" pageHeight="1169" background="none" math="0" shadow="0">
      <root>
        <mxCell id="0" />
        <mxCell id="1" parent="0" />
        <mxCell id="oW1JKljortIS2Dd90n-k-2" value="cliente" style="shape=umlActor;verticalLabelPosition=bottom;verticalAlign=top;html=1;outlineConnect=0;" vertex="1" parent="1">
          <mxGeometry x="160" y="70" width="30" height="60" as="geometry" />
        </mxCell>
        <mxCell id="oW1JKljortIS2Dd90n-k-3" value="administrador" style="shape=umlActor;verticalLabelPosition=bottom;verticalAlign=top;html=1;outlineConnect=0;" vertex="1" parent="1">
          <mxGeometry x="350" y="60" width="30" height="60" as="geometry" />
        </mxCell>
        <mxCell id="oW1JKljortIS2Dd90n-k-6" value="lista de producto" style="ellipse;whiteSpace=wrap;html=1;" vertex="1" parent="1">
          <mxGeometry x="220" y="70" width="80" height="50" as="geometry" />
        </mxCell>
        <mxCell id="oW1JKljortIS2Dd90n-k-8" style="edgeStyle=orthogonalEdgeStyle;rounded=0;orthogonalLoop=1;jettySize=auto;html=1;exitX=0.5;exitY=0.5;exitDx=0;exitDy=0;exitPerimeter=0;entryX=0.031;entryY=0.401;entryDx=0;entryDy=0;entryPerimeter=0;" edge="1" parent="1" source="oW1JKljortIS2Dd90n-k-2" target="oW1JKljortIS2Dd90n-k-6">
          <mxGeometry relative="1" as="geometry" />
        </mxCell>
        <mxCell id="oW1JKljortIS2Dd90n-k-9" style="edgeStyle=orthogonalEdgeStyle;rounded=0;orthogonalLoop=1;jettySize=auto;html=1;exitX=0.5;exitY=0.5;exitDx=0;exitDy=0;exitPerimeter=0;entryX=1.023;entryY=0.401;entryDx=0;entryDy=0;entryPerimeter=0;" edge="1" parent="1" source="oW1JKljortIS2Dd90n-k-3" target="oW1JKljortIS2Dd90n-k-6">
          <mxGeometry relative="1" as="geometry" />
        </mxCell>
        <mxCell id="oW1JKljortIS2Dd90n-k-12" value="realizar pedido" style="ellipse;whiteSpace=wrap;html=1;" vertex="1" parent="1">
          <mxGeometry x="10" y="20" width="90" height="60" as="geometry" />
        </mxCell>
        <mxCell id="oW1JKljortIS2Dd90n-k-18" style="edgeStyle=orthogonalEdgeStyle;rounded=0;orthogonalLoop=1;jettySize=auto;html=1;exitX=1;exitY=0.5;exitDx=0;exitDy=0;" edge="1" parent="1" source="oW1JKljortIS2Dd90n-k-13" target="oW1JKljortIS2Dd90n-k-2">
          <mxGeometry relative="1" as="geometry" />
        </mxCell>
        <mxCell id="oW1JKljortIS2Dd90n-k-13" value="consultar pedidos" style="ellipse;whiteSpace=wrap;html=1;" vertex="1" parent="1">
          <mxGeometry x="10" y="100" width="90" height="60" as="geometry" />
        </mxCell>
        <mxCell id="oW1JKljortIS2Dd90n-k-14" value="añadir producto al inventario" style="ellipse;whiteSpace=wrap;html=1;" vertex="1" parent="1">
          <mxGeometry x="420" width="90" height="60" as="geometry" />
        </mxCell>
        <mxCell id="oW1JKljortIS2Dd90n-k-19" style="edgeStyle=orthogonalEdgeStyle;rounded=0;orthogonalLoop=1;jettySize=auto;html=1;exitX=0;exitY=0.5;exitDx=0;exitDy=0;" edge="1" parent="1" source="oW1JKljortIS2Dd90n-k-15" target="oW1JKljortIS2Dd90n-k-3">
          <mxGeometry relative="1" as="geometry" />
        </mxCell>
        <mxCell id="oW1JKljortIS2Dd90n-k-15" value="eliminar producto" style="ellipse;whiteSpace=wrap;html=1;" vertex="1" parent="1">
          <mxGeometry x="430" y="105" width="70" height="50" as="geometry" />
        </mxCell>
        <mxCell id="oW1JKljortIS2Dd90n-k-17" style="edgeStyle=orthogonalEdgeStyle;rounded=0;orthogonalLoop=1;jettySize=auto;html=1;exitX=1;exitY=0.5;exitDx=0;exitDy=0;entryX=0.5;entryY=0;entryDx=0;entryDy=0;entryPerimeter=0;" edge="1" parent="1" source="oW1JKljortIS2Dd90n-k-12" target="oW1JKljortIS2Dd90n-k-2">
          <mxGeometry relative="1" as="geometry" />
        </mxCell>
        <mxCell id="oW1JKljortIS2Dd90n-k-20" style="edgeStyle=orthogonalEdgeStyle;rounded=0;orthogonalLoop=1;jettySize=auto;html=1;exitX=0;exitY=0.5;exitDx=0;exitDy=0;entryX=0.5;entryY=0;entryDx=0;entryDy=0;entryPerimeter=0;" edge="1" parent="1" source="oW1JKljortIS2Dd90n-k-14" target="oW1JKljortIS2Dd90n-k-3">
          <mxGeometry relative="1" as="geometry" />
        </mxCell>
        <mxCell id="oW1JKljortIS2Dd90n-k-22" value="Actor" style="shape=umlActor;verticalLabelPosition=bottom;verticalAlign=top;html=1;outlineConnect=0;" vertex="1" parent="1">
          <mxGeometry x="60" y="200" width="20" height="40" as="geometry" />
        </mxCell>
        <mxCell id="oW1JKljortIS2Dd90n-k-23" value="" style="rounded=0;whiteSpace=wrap;html=1;" vertex="1" parent="1">
          <mxGeometry x="65" y="280" width="10" height="140" as="geometry" />
        </mxCell>
        <mxCell id="oW1JKljortIS2Dd90n-k-25" value="" style="rounded=0;whiteSpace=wrap;html=1;" vertex="1" parent="1">
          <mxGeometry x="170" y="290" width="10" height="130" as="geometry" />
        </mxCell>
        <mxCell id="oW1JKljortIS2Dd90n-k-26" value="" style="rounded=0;whiteSpace=wrap;html=1;" vertex="1" parent="1">
          <mxGeometry x="280" y="300" width="10" height="120" as="geometry" />
        </mxCell>
        <mxCell id="oW1JKljortIS2Dd90n-k-27" value="" style="rounded=0;whiteSpace=wrap;html=1;" vertex="1" parent="1">
          <mxGeometry x="400" y="310" width="10" height="110" as="geometry" />
        </mxCell>
        <mxCell id="oW1JKljortIS2Dd90n-k-28" value="tienda service" style="rounded=0;whiteSpace=wrap;html=1;" vertex="1" parent="1">
          <mxGeometry x="130" y="250" width="90" height="20" as="geometry" />
        </mxCell>
        <mxCell id="oW1JKljortIS2Dd90n-k-33" value="producto" style="rounded=0;whiteSpace=wrap;html=1;" vertex="1" parent="1">
          <mxGeometry x="240" y="260" width="90" height="20" as="geometry" />
        </mxCell>
        <mxCell id="oW1JKljortIS2Dd90n-k-34" value="pedido" style="rounded=0;whiteSpace=wrap;html=1;" vertex="1" parent="1">
          <mxGeometry x="360" y="280" width="90" height="20" as="geometry" />
        </mxCell>
        <mxCell id="oW1JKljortIS2Dd90n-k-40" value="" style="endArrow=classic;html=1;rounded=0;entryX=-0.22;entryY=0.08;entryDx=0;entryDy=0;entryPerimeter=0;" edge="1" parent="1" target="oW1JKljortIS2Dd90n-k-25">
          <mxGeometry width="50" height="50" relative="1" as="geometry">
            <mxPoint x="75" y="300" as="sourcePoint" />
            <mxPoint x="125" y="250" as="targetPoint" />
          </mxGeometry>
        </mxCell>
        <mxCell id="oW1JKljortIS2Dd90n-k-41" value="realizar pedido" style="text;html=1;align=center;verticalAlign=middle;resizable=0;points=[];autosize=1;strokeColor=none;fillColor=none;" vertex="1" parent="1">
          <mxGeometry x="70" y="280" width="100" height="30" as="geometry" />
        </mxCell>
        <mxCell id="oW1JKljortIS2Dd90n-k-42" value="" style="endArrow=classic;html=1;rounded=0;entryX=-0.073;entryY=0.083;entryDx=0;entryDy=0;entryPerimeter=0;" edge="1" parent="1" target="oW1JKljortIS2Dd90n-k-26">
          <mxGeometry width="50" height="50" relative="1" as="geometry">
            <mxPoint x="180" y="310" as="sourcePoint" />
            <mxPoint x="230" y="260" as="targetPoint" />
          </mxGeometry>
        </mxCell>
        <mxCell id="oW1JKljortIS2Dd90n-k-44" value="" style="endArrow=none;dashed=1;html=1;dashPattern=1 3;strokeWidth=2;rounded=0;exitX=0.5;exitY=1;exitDx=0;exitDy=0;entryX=0.5;entryY=0;entryDx=0;entryDy=0;" edge="1" parent="1" source="oW1JKljortIS2Dd90n-k-28" target="oW1JKljortIS2Dd90n-k-25">
          <mxGeometry width="50" height="50" relative="1" as="geometry">
            <mxPoint x="200" y="280" as="sourcePoint" />
            <mxPoint x="200" y="270" as="targetPoint" />
          </mxGeometry>
        </mxCell>
        <mxCell id="oW1JKljortIS2Dd90n-k-46" value="" style="endArrow=none;dashed=1;html=1;rounded=0;exitX=0.5;exitY=0;exitDx=0;exitDy=0;entryX=0.5;entryY=1;entryDx=0;entryDy=0;" edge="1" parent="1" source="oW1JKljortIS2Dd90n-k-26" target="oW1JKljortIS2Dd90n-k-33">
          <mxGeometry width="50" height="50" relative="1" as="geometry">
            <mxPoint x="240" y="320" as="sourcePoint" />
            <mxPoint x="290" y="270" as="targetPoint" />
          </mxGeometry>
        </mxCell>
        <mxCell id="oW1JKljortIS2Dd90n-k-47" value="" style="endArrow=none;dashed=1;html=1;rounded=0;exitX=0.5;exitY=0;exitDx=0;exitDy=0;entryX=0.5;entryY=1;entryDx=0;entryDy=0;" edge="1" parent="1" source="oW1JKljortIS2Dd90n-k-27">
          <mxGeometry width="50" height="50" relative="1" as="geometry">
            <mxPoint x="404.92" y="320" as="sourcePoint" />
            <mxPoint x="404.92" y="300" as="targetPoint" />
          </mxGeometry>
        </mxCell>
        <mxCell id="oW1JKljortIS2Dd90n-k-48" value="verificar stock" style="text;html=1;align=center;verticalAlign=middle;resizable=0;points=[];autosize=1;strokeColor=none;fillColor=none;" vertex="1" parent="1">
          <mxGeometry x="180" y="290" width="100" height="30" as="geometry" />
        </mxCell>
        <mxCell id="oW1JKljortIS2Dd90n-k-49" value="" style="endArrow=classic;html=1;rounded=0;entryX=-0.073;entryY=0.083;entryDx=0;entryDy=0;entryPerimeter=0;" edge="1" parent="1">
          <mxGeometry width="50" height="50" relative="1" as="geometry">
            <mxPoint x="180.5" y="340" as="sourcePoint" />
            <mxPoint x="279.5" y="340" as="targetPoint" />
          </mxGeometry>
        </mxCell>
        <mxCell id="oW1JKljortIS2Dd90n-k-52" value="actualizar stock" style="text;html=1;align=center;verticalAlign=middle;resizable=0;points=[];autosize=1;strokeColor=none;fillColor=none;" vertex="1" parent="1">
          <mxGeometry x="175" y="320" width="110" height="30" as="geometry" />
        </mxCell>
        <mxCell id="oW1JKljortIS2Dd90n-k-53" value="" style="endArrow=classic;html=1;rounded=0;entryX=0.033;entryY=0.586;entryDx=0;entryDy=0;entryPerimeter=0;" edge="1" parent="1" target="oW1JKljortIS2Dd90n-k-27">
          <mxGeometry width="50" height="50" relative="1" as="geometry">
            <mxPoint x="180" y="375" as="sourcePoint" />
            <mxPoint x="230" y="325" as="targetPoint" />
          </mxGeometry>
        </mxCell>
        <mxCell id="oW1JKljortIS2Dd90n-k-54" value="nuevo pedido" style="text;html=1;align=center;verticalAlign=middle;resizable=0;points=[];autosize=1;strokeColor=none;fillColor=none;" vertex="1" parent="1">
          <mxGeometry x="290" y="360" width="100" height="30" as="geometry" />
        </mxCell>
        <mxCell id="oW1JKljortIS2Dd90n-k-55" value="" style="endArrow=classic;html=1;rounded=0;entryX=0.995;entryY=0.886;entryDx=0;entryDy=0;entryPerimeter=0;" edge="1" parent="1" target="oW1JKljortIS2Dd90n-k-25">
          <mxGeometry width="50" height="50" relative="1" as="geometry">
            <mxPoint x="190" y="405" as="sourcePoint" />
            <mxPoint x="250" y="350" as="targetPoint" />
            <Array as="points">
              <mxPoint x="190" y="410" />
            </Array>
          </mxGeometry>
        </mxCell>
        <mxCell id="oW1JKljortIS2Dd90n-k-58" value="" style="endArrow=none;dashed=1;html=1;rounded=0;entryX=-0.1;entryY=0.894;entryDx=0;entryDy=0;entryPerimeter=0;" edge="1" parent="1" target="oW1JKljortIS2Dd90n-k-27">
          <mxGeometry width="50" height="50" relative="1" as="geometry">
            <mxPoint x="180" y="410" as="sourcePoint" />
            <mxPoint x="230" y="360" as="targetPoint" />
          </mxGeometry>
        </mxCell>
      </root>
    </mxGraphModel>
  </diagram>
</mxfile>
